<svg width="153" height="30" viewBox="0 0 153 30" fill="none" xmlns="http://www.w3.org/2000/svg">
<path d="M14.6834 22.0317C14.5588 24.4528 13.8781 26.3071 12.641 27.5972C11.4039 28.8846 9.65822 29.5283 7.40128 29.5283C5.14434 29.5283 3.33508 28.6674 1.99999 26.9429C0.664897 25.2184 0 22.8846 0 19.9363V15.8383C0 12.9006 0.686088 10.5774 2.05562 8.86882C3.42514 7.16023 5.29798 6.30725 7.66618 6.30725C9.84894 6.30725 11.539 6.9589 12.7337 8.26221C13.9284 9.56551 14.5774 11.433 14.6807 13.8648H11.8092C11.6847 12.0238 11.2979 10.7099 10.6463 9.92312C9.99464 9.13637 9.00127 8.74432 7.66618 8.74432C6.12446 8.74432 4.94037 9.34829 4.11123 10.5536C3.2821 11.7589 2.86886 13.5257 2.86886 15.8542V19.9972C2.86886 22.2833 3.25296 24.0369 4.02646 25.2581C4.79732 26.4793 5.92314 27.0886 7.40128 27.0886C8.87941 27.0886 9.94696 26.7204 10.5986 25.9866C11.2503 25.2528 11.6529 23.9336 11.8092 22.029H14.6807L14.6834 22.0317Z" fill="white"/>
<path d="M17.5708 20.0449C17.5708 17.6025 18.1641 15.6714 19.3482 14.2489C20.5323 12.8264 22.0979 12.1138 24.0422 12.1138C25.9866 12.1138 27.5522 12.8079 28.7363 14.1933C29.9204 15.5787 30.5296 17.4674 30.5588 19.8595V21.629C30.5588 24.0608 29.968 25.9866 28.7892 27.4038C27.6104 28.821 26.0369 29.5309 24.0714 29.5309C22.1058 29.5309 20.5668 28.8422 19.3906 27.4674C18.2171 26.0925 17.6079 24.2277 17.5681 21.8807V20.0502L17.5708 20.0449ZM20.3178 21.629C20.3178 23.3561 20.6568 24.7151 21.335 25.7031C22.0131 26.6912 22.927 27.1866 24.074 27.1866C26.4952 27.1866 27.7429 25.4382 27.8144 21.9416V20.0476C27.8144 18.331 27.4727 16.9721 26.7892 15.9734C26.1058 14.9747 25.1893 14.4767 24.0422 14.4767C22.8952 14.4767 22.0105 14.9774 21.335 15.9734C20.6568 16.9721 20.3178 18.3257 20.3178 20.0317V21.6317V21.629Z" fill="white"/>
<path d="M42.6672 27.7429C41.756 28.9323 40.4262 29.5283 38.6779 29.5283C37.1573 29.5283 36.0077 29.0038 35.2315 27.9521C34.4554 26.9031 34.0607 25.372 34.0527 23.3667V12.4238H36.7838V23.1654C36.7838 25.7826 37.5706 27.0912 39.1441 27.0912C40.8103 27.0912 41.9573 26.3469 42.5904 24.8555V12.4238H45.3374V29.2184H42.7308L42.6699 27.7429H42.6672Z" fill="white"/>
<path d="M52.058 12.4238L52.1348 14.241C53.1997 12.8238 54.5613 12.1138 56.2169 12.1138C59.1864 12.1138 60.6911 14.0953 60.7334 18.0582V29.2184H58.0023V18.1827C58.0023 16.8688 57.7825 15.9337 57.3427 15.38C56.903 14.8264 56.2434 14.5509 55.3639 14.5509C54.6805 14.5509 54.0686 14.7787 53.5255 15.2343C52.9825 15.69 52.5454 16.286 52.2143 17.0198V29.2184H49.4673V12.4238H52.0606H52.058Z" fill="white"/>
<path d="M68.4499 8.35754V12.4237H70.9797V14.6436H68.4499V25.0727C68.4499 25.7349 68.5585 26.2382 68.7757 26.5799C68.9929 26.9217 69.3664 27.0938 69.8936 27.0938C70.2565 27.0938 70.622 27.0329 70.9956 26.9084L70.9638 29.2236C70.3439 29.4303 69.7055 29.5309 69.0538 29.5309C67.9678 29.5309 67.1386 29.1442 66.5691 28.368C65.9996 27.5919 65.7161 26.4952 65.7161 25.078V14.6462H63.1545V12.4264H65.7161V8.36019H68.4472L68.4499 8.35754Z" fill="white"/>
<path d="M133.885 12.4238L133.962 14.241C135.027 12.8238 136.389 12.1138 138.044 12.1138C141.014 12.1138 142.518 14.0953 142.561 18.0582V29.2184H139.83V18.1827C139.83 16.8688 139.61 15.9337 139.17 15.38C138.73 14.8264 138.071 14.5509 137.191 14.5509C136.508 14.5509 135.896 14.7787 135.353 15.2343C134.81 15.69 134.373 16.286 134.042 17.0198V29.2184H131.295V12.4238H133.888H133.885Z" fill="white"/>
<path d="M78.8604 29.4939C78.5796 29.2025 78.4393 28.6541 78.4393 27.8435C78.4393 27.2978 78.4949 26.5985 78.6114 25.7455C78.7253 24.8926 78.9161 23.7191 79.1783 22.2224C79.6366 19.4621 79.9969 17.0675 80.2591 15.0463C80.418 13.7801 80.4975 12.7231 80.4975 11.8807C80.4975 11.0887 80.2061 10.694 79.626 10.694C79.1677 10.694 78.6194 10.9271 77.9757 11.3933C77.3346 11.8595 76.6247 12.6039 75.8512 13.6238C75.6048 13.9575 75.332 14.1244 75.0327 14.1244C74.7863 14.1244 74.5717 14.0052 74.3863 13.7695C74.2009 13.5337 74.1082 13.2635 74.1082 12.9642C74.1082 12.6834 74.1638 12.3973 74.2803 12.1059C74.3942 11.8145 74.585 11.486 74.8472 11.1152C75.6923 9.93637 76.6326 9.02777 77.671 8.38406C78.7095 7.74301 79.7452 7.41983 80.7836 7.41983C81.7505 7.41983 82.4949 7.72711 83.0141 8.34433C83.5333 8.96154 83.7929 9.8569 83.7929 11.0357C83.7929 11.5099 83.7478 12.0688 83.6604 12.7125C83.573 13.3536 83.4935 13.8781 83.422 14.2834C83.3505 14.6887 83.2975 14.9695 83.2631 15.1284C84.267 12.2622 85.3902 10.2595 86.6405 9.12578C87.8882 7.99201 89.2604 7.42513 90.7571 7.42513C91.9014 7.42513 92.8021 7.83042 93.4617 8.63837C94.1213 9.44896 94.4524 10.5907 94.4524 12.0688C94.4524 12.6489 94.3729 13.3695 94.214 14.233C95.0935 11.8066 96.1213 10.0635 97.3001 9.00922C98.4789 7.95493 99.8325 7.42513 101.364 7.42513C102.595 7.42513 103.541 7.81983 104.201 8.61188C104.86 9.40392 105.189 10.5112 105.189 11.9364C105.189 12.7099 105.075 13.6503 104.847 14.7602L103.236 22.3072C103.059 23.1866 102.972 23.9442 102.972 24.5773C102.972 25.3164 103.144 25.87 103.485 26.2409C103.827 26.6091 104.307 26.7945 104.924 26.7945C105.504 26.7945 106.071 26.6012 106.625 26.2144C107.178 25.8277 107.835 25.1866 108.59 24.2886C108.802 24.0422 109.038 23.9204 109.303 23.9204C109.53 23.9204 109.711 24.0263 109.843 24.2383C109.975 24.4502 110.042 24.7389 110.042 25.1098C110.042 25.7959 109.875 26.3416 109.541 26.7442C108.627 27.8515 107.721 28.6621 106.823 29.1707C105.925 29.6819 104.985 29.9362 103.999 29.9362C102.503 29.9362 101.334 29.4912 100.489 28.6038C99.6444 27.7164 99.2232 26.5243 99.2232 25.0277C99.2232 23.9893 99.4351 22.4873 99.8563 20.5164L100.911 15.6873C100.945 15.5284 101.006 15.2476 101.096 14.8423C101.183 14.437 101.255 14.0555 101.308 13.6953C101.361 13.335 101.387 12.9801 101.387 12.6277C101.387 12.0132 101.268 11.5496 101.032 11.2423C100.794 10.935 100.455 10.7814 100.018 10.7814C99.1914 10.7814 98.3252 11.3138 97.4193 12.3787C96.5133 13.4436 95.6524 15.2052 94.8339 17.6688C94.0153 20.1323 93.3531 23.3323 92.8418 27.274C92.72 28.3283 92.5027 29.0382 92.1955 29.3985C91.8882 29.7588 91.3902 29.9389 90.7041 29.9389C90.1054 29.9389 89.671 29.7985 89.3981 29.5177C89.1253 29.2369 88.9902 28.7098 88.9902 27.9336C88.9902 27.2131 89.0855 26.2674 89.2816 25.0965C89.4749 23.9257 89.7213 22.5509 90.0206 20.9668C90.8286 16.7098 91.2339 13.9655 91.2339 12.7337C91.2339 12.0662 91.1067 11.5734 90.8524 11.2556C90.5981 10.9377 90.214 10.7814 89.7054 10.7814C88.8445 10.7814 87.9544 11.2688 87.0405 12.2463C86.1266 13.2211 85.2339 14.9562 84.3624 17.4436C83.4909 19.9337 82.7651 23.2979 82.1849 27.5363C82.0604 28.4343 81.8803 29.0594 81.6445 29.4091C81.4061 29.7614 80.9452 29.9362 80.2591 29.9362C79.573 29.9362 79.1412 29.7905 78.8604 29.5018V29.4939Z" fill="#518CFF"/>
<path d="M120.219 24.2303C120.352 24.4422 120.418 24.731 120.418 25.1018C120.418 25.8065 120.251 26.3522 119.917 26.7363C119.266 27.5283 118.346 28.2594 117.16 28.927C115.973 29.5945 114.701 29.931 113.348 29.931C111.501 29.931 110.066 29.4303 109.046 28.4263C108.026 27.4224 107.515 26.0528 107.515 24.3098C107.515 23.0966 107.769 21.9654 108.28 20.9191C108.789 19.8727 109.499 19.041 110.405 18.4264C111.311 17.8118 112.336 17.5019 113.478 17.5019C114.497 17.5019 115.316 17.8065 115.93 18.4131C116.545 19.0198 116.855 19.8436 116.855 20.8794C116.855 22.0926 116.421 23.1363 115.549 24.0052C114.678 24.874 113.205 25.5654 111.131 26.0767C111.57 26.8846 112.405 27.2899 113.636 27.2899C114.429 27.2899 115.329 27.0118 116.341 26.4581C117.353 25.9045 118.227 25.1787 118.966 24.2807C119.178 24.0343 119.414 23.9124 119.679 23.9124C119.907 23.9124 120.087 24.0184 120.219 24.2303ZM111.38 21.2211C110.932 21.9787 110.707 22.8926 110.707 23.9654V24.0184C111.745 23.7721 112.564 23.4038 113.16 22.9111C113.758 22.4184 114.058 21.8462 114.058 21.1972C114.058 20.8635 113.965 20.5959 113.78 20.3919C113.594 20.1906 113.345 20.0873 113.027 20.0873C112.376 20.0873 111.827 20.4661 111.377 21.2211H111.38Z" fill="#518CFF"/>
<path d="M127.143 8.23306C127.143 8.68339 127.019 9.05954 126.767 9.35888C126.516 9.65822 126.137 9.80921 125.626 9.80921C125.114 9.80921 124.749 9.65822 124.5 9.35888C124.251 9.05954 124.124 8.68339 124.124 8.23306C124.124 7.78273 124.248 7.40128 124.5 7.09134C124.751 6.78141 125.125 6.62512 125.626 6.62512C126.126 6.62512 126.505 6.78406 126.759 7.09929C127.014 7.41452 127.143 7.79333 127.143 8.23306Z" fill="white"/>
<path d="M126.976 12.4238H124.229V29.2184H126.976V12.4238Z" fill="white"/>
<path d="M145.618 6.543C145.008 5.84897 144.64 4.94036 144.64 3.94434C144.64 3.45428 144.73 2.98541 144.895 2.55362C144.516 2.43177 144.113 2.36819 143.695 2.36819C141.517 2.36819 139.75 4.13242 139.75 6.31254C139.75 8.49266 141.514 10.2569 143.695 10.2569C144.031 10.2569 144.357 10.2145 144.667 10.135C144.598 9.84364 144.561 9.54166 144.561 9.23173C144.561 8.19332 144.963 7.25028 145.618 6.54565V6.543Z" fill="#A12286"/>
<path d="M147.53 5.40659C147.84 5.32712 148.166 5.28473 148.502 5.28473C149.684 5.28473 150.743 5.80659 151.467 6.63042C152.121 5.92579 152.524 4.98275 152.524 3.94435C152.524 1.76688 150.759 0 148.579 0C146.892 0 145.451 1.06224 144.889 2.55098C146.198 2.96952 147.21 4.05295 147.528 5.40394L147.53 5.40659Z" fill="#518CFF"/>
<path d="M145.618 6.54303C146.126 5.99734 146.786 5.59469 147.53 5.40661C147.213 4.05563 146.201 2.97219 144.892 2.55365C144.728 2.98544 144.638 3.45431 144.638 3.94437C144.638 4.94039 145.009 5.84899 145.615 6.54303H145.618Z" fill="#2424A0"/>
<path d="M148.582 7.8887C148.163 7.8887 147.761 7.82248 147.382 7.70327C146.932 8.89797 145.917 9.81717 144.664 10.135C145.072 11.8781 146.635 13.1734 148.502 13.1734C150.68 13.1734 152.447 11.4092 152.447 9.22909C152.447 8.23307 152.076 7.32447 151.469 6.63043C150.749 7.40394 149.724 7.8887 148.585 7.8887H148.582Z" fill="#69EBD0"/>
<path d="M147.382 7.70326C146.691 7.4834 146.084 7.0781 145.618 6.54565C144.963 7.25029 144.561 8.19333 144.561 9.23173C144.561 9.54166 144.598 9.8463 144.667 10.135C145.92 9.81716 146.934 8.89796 147.385 7.70326H147.382Z" fill="#411499"/>
<path d="M148.502 5.28741C148.166 5.28741 147.84 5.32979 147.53 5.40926C147.599 5.70065 147.636 6.00264 147.636 6.31257C147.636 6.80263 147.546 7.2715 147.382 7.70329C147.761 7.82514 148.163 7.88872 148.582 7.88872C149.721 7.88872 150.749 7.40395 151.467 6.63045C150.743 5.80661 149.684 5.28476 148.502 5.28476V5.28741Z" fill="#69EBD0"/>
<path d="M147.53 5.40659C146.786 5.59466 146.126 5.99731 145.618 6.543C146.084 7.07545 146.693 7.48074 147.382 7.70061C147.546 7.26883 147.636 6.79995 147.636 6.30989C147.636 5.99996 147.599 5.69533 147.53 5.40659Z" fill="#1F0B84"/>
</svg>
